<svg width="19" height="18" viewBox="0 0 19 18" fill="none" xmlns="http://www.w3.org/2000/svg">
<path d="M2.33017 4.84416C2.54165 4.62379 2.82843 4.5 3.12745 4.5C3.42648 4.5 3.71326 4.62379 3.92473 4.84416L9.50681 10.6627L15.0889 4.84416C15.3016 4.63004 15.5864 4.51156 15.8821 4.51424C16.1778 4.51692 16.4606 4.64054 16.6697 4.85848C16.8788 5.07642 16.9974 5.37124 17 5.67944C17.0025 5.98764 16.8889 6.28456 16.6834 6.50626L10.3041 13.1558C10.0926 13.3762 9.80583 13.5 9.50681 13.5C9.20778 13.5 8.921 13.3762 8.70953 13.1558L2.33017 6.50626C2.11876 6.28583 2 5.9869 2 5.67521C2 5.36352 2.11876 5.06459 2.33017 4.84416Z" fill="white"/>
</svg>
